<mxfile host="app.diagrams.net" agent="Mozilla/5.0 (Macintosh; Intel Mac OS X 10_15_7) AppleWebKit/537.36 (KHTML, like Gecko) Chrome/130.0.0.0 Safari/537.36" version="24.8.6">
  <diagram id="Ht1M8jgEwFfnCIfOTk4-" name="Page-1">
    <mxGraphModel dx="1734" dy="938" grid="1" gridSize="10" guides="1" tooltips="1" connect="1" arrows="1" fold="1" page="1" pageScale="1" pageWidth="827" pageHeight="1169" math="0" shadow="0">
      <root>
        <mxCell id="0" />
        <mxCell id="1" parent="0" />
        <mxCell id="jZVaUwOg5UY3L9NAnvdq-71" value="AWS Cloud" style="points=[[0,0],[0.25,0],[0.5,0],[0.75,0],[1,0],[1,0.25],[1,0.5],[1,0.75],[1,1],[0.75,1],[0.5,1],[0.25,1],[0,1],[0,0.75],[0,0.5],[0,0.25]];outlineConnect=0;gradientColor=none;html=1;whiteSpace=wrap;fontSize=12;fontStyle=0;shape=mxgraph.aws4.group;grIcon=mxgraph.aws4.group_aws_cloud_alt;strokeColor=#232F3E;fillColor=none;verticalAlign=top;align=left;spacingLeft=30;fontColor=#232F3E;dashed=0;labelBackgroundColor=none;container=1;pointerEvents=0;collapsible=0;recursiveResize=0;" parent="1" vertex="1">
          <mxGeometry x="263" y="125" width="1097" height="757" as="geometry" />
        </mxCell>
        <mxCell id="NOl0aqLu7fEq007huH1b-15" value="" style="rounded=0;whiteSpace=wrap;html=1;" vertex="1" parent="jZVaUwOg5UY3L9NAnvdq-71">
          <mxGeometry x="10" y="35.5" width="110" height="104.5" as="geometry" />
        </mxCell>
        <mxCell id="NOl0aqLu7fEq007huH1b-3" value="Amazon API&lt;br&gt;Gateway&lt;br&gt;" style="outlineConnect=0;fontColor=#232F3E;gradientColor=#945DF2;gradientDirection=north;fillColor=#5A30B5;strokeColor=#ffffff;dashed=0;verticalLabelPosition=bottom;verticalAlign=top;align=center;html=1;fontSize=12;fontStyle=0;aspect=fixed;shape=mxgraph.aws4.resourceIcon;resIcon=mxgraph.aws4.api_gateway;labelBackgroundColor=none;" vertex="1" parent="jZVaUwOg5UY3L9NAnvdq-71">
          <mxGeometry x="486" y="26.499999999999943" width="78" height="78" as="geometry" />
        </mxCell>
        <mxCell id="NOl0aqLu7fEq007huH1b-1" value="" style="outlineConnect=0;dashed=0;verticalLabelPosition=bottom;verticalAlign=top;align=center;html=1;shape=mxgraph.aws3.cloudfront;fillColor=#F58536;gradientColor=none;" vertex="1" parent="jZVaUwOg5UY3L9NAnvdq-71">
          <mxGeometry x="247" y="235" width="76.5" height="93" as="geometry" />
        </mxCell>
        <mxCell id="jZVaUwOg5UY3L9NAnvdq-136" value="" style="edgeStyle=elbowEdgeStyle;rounded=0;orthogonalLoop=1;jettySize=auto;html=1;endArrow=open;endFill=0;strokeColor=#545B64;strokeWidth=2;fontSize=14;" parent="jZVaUwOg5UY3L9NAnvdq-71" edge="1">
          <mxGeometry relative="1" as="geometry">
            <mxPoint x="285.245263157895" y="235.00122770790333" as="sourcePoint" />
            <mxPoint x="285.245263157895" y="130.71999999999977" as="targetPoint" />
          </mxGeometry>
        </mxCell>
        <mxCell id="jZVaUwOg5UY3L9NAnvdq-110" style="edgeStyle=elbowEdgeStyle;rounded=0;orthogonalLoop=1;jettySize=auto;html=1;endArrow=open;endFill=0;strokeColor=#545B64;strokeWidth=2;fontSize=14;" parent="jZVaUwOg5UY3L9NAnvdq-71" target="NOl0aqLu7fEq007huH1b-9" edge="1">
          <mxGeometry relative="1" as="geometry">
            <mxPoint x="-93" y="275" as="sourcePoint" />
            <mxPoint x="-23" y="275" as="targetPoint" />
          </mxGeometry>
        </mxCell>
        <UserObject label="Route53&lt;br&gt;&lt;br&gt;DNS resolution and redirect to&lt;br&gt;&lt;div&gt;&lt;br&gt;&lt;/div&gt;" treeRoot="1" id="NOl0aqLu7fEq007huH1b-9">
          <mxCell style="whiteSpace=wrap;html=1;align=center;treeFolding=1;treeMoving=1;newEdgeStyle={&quot;edgeStyle&quot;:&quot;elbowEdgeStyle&quot;,&quot;startArrow&quot;:&quot;none&quot;,&quot;endArrow&quot;:&quot;none&quot;};" vertex="1" parent="jZVaUwOg5UY3L9NAnvdq-71">
            <mxGeometry x="31" y="210" width="120" height="95" as="geometry" />
          </mxCell>
        </UserObject>
        <mxCell id="NOl0aqLu7fEq007huH1b-11" value="" style="edgeStyle=elbowEdgeStyle;rounded=0;orthogonalLoop=1;jettySize=auto;html=1;endArrow=open;endFill=0;strokeColor=#545B64;strokeWidth=2;fontSize=14;" edge="1" parent="jZVaUwOg5UY3L9NAnvdq-71">
          <mxGeometry relative="1" as="geometry">
            <mxPoint x="227" y="275" as="sourcePoint" />
            <mxPoint x="247" y="275" as="targetPoint" />
            <Array as="points">
              <mxPoint x="147" y="246.47000000000003" />
            </Array>
          </mxGeometry>
        </mxCell>
        <mxCell id="jZVaUwOg5UY3L9NAnvdq-111" value="" style="edgeStyle=elbowEdgeStyle;rounded=0;orthogonalLoop=1;jettySize=auto;html=1;endArrow=open;endFill=0;strokeColor=#545B64;strokeWidth=2;fontSize=14;" parent="jZVaUwOg5UY3L9NAnvdq-71" edge="1">
          <mxGeometry relative="1" as="geometry">
            <mxPoint x="277" y="414.9999999999998" as="sourcePoint" />
            <mxPoint x="337" y="415" as="targetPoint" />
          </mxGeometry>
        </mxCell>
        <mxCell id="jZVaUwOg5UY3L9NAnvdq-73" value="Amazon S3" style="outlineConnect=0;fontColor=#232F3E;gradientColor=#60A337;gradientDirection=north;fillColor=#277116;strokeColor=#ffffff;dashed=0;verticalLabelPosition=bottom;verticalAlign=top;align=center;html=1;fontSize=12;fontStyle=0;aspect=fixed;shape=mxgraph.aws4.resourceIcon;resIcon=mxgraph.aws4.s3;labelBackgroundColor=none;" parent="jZVaUwOg5UY3L9NAnvdq-71" vertex="1">
          <mxGeometry x="246.25" y="26.5" width="78" height="78" as="geometry" />
        </mxCell>
        <mxCell id="NOl0aqLu7fEq007huH1b-14" value="Virtual private&#xa;cloud" style="sketch=0;outlineConnect=0;fontColor=#232F3E;gradientColor=none;strokeColor=#232F3E;fillColor=#ffffff;dashed=0;verticalLabelPosition=bottom;verticalAlign=top;align=center;html=1;fontSize=12;fontStyle=0;aspect=fixed;shape=mxgraph.aws4.resourceIcon;resIcon=mxgraph.aws4.virtual_private_cloud;" vertex="1" parent="jZVaUwOg5UY3L9NAnvdq-71">
          <mxGeometry x="31" y="35.5" width="60" height="60" as="geometry" />
        </mxCell>
        <mxCell id="NOl0aqLu7fEq007huH1b-22" value="" style="line;strokeWidth=2;direction=south;html=1;" vertex="1" parent="jZVaUwOg5UY3L9NAnvdq-71">
          <mxGeometry x="10" y="140" width="10" height="590" as="geometry" />
        </mxCell>
        <mxCell id="NOl0aqLu7fEq007huH1b-24" value="" style="line;strokeWidth=1;fillColor=none;align=left;verticalAlign=middle;spacingTop=-1;spacingLeft=3;spacingRight=3;rotatable=0;labelPosition=right;points=[];portConstraint=eastwest;strokeColor=inherit;fontStyle=0" vertex="1" parent="jZVaUwOg5UY3L9NAnvdq-71">
          <mxGeometry x="10" y="722" width="1040" height="8" as="geometry" />
        </mxCell>
        <mxCell id="jZVaUwOg5UY3L9NAnvdq-119" value="" style="edgeStyle=elbowEdgeStyle;rounded=0;orthogonalLoop=1;jettySize=auto;html=1;endArrow=open;endFill=0;strokeColor=#545B64;strokeWidth=2;fontSize=14;" parent="1" edge="1">
          <mxGeometry relative="1" as="geometry">
            <Array as="points">
              <mxPoint x="1170" y="232" />
            </Array>
            <mxPoint x="1117.9991128500255" y="271.5" as="sourcePoint" />
            <mxPoint x="1210.5000000000005" y="186.5" as="targetPoint" />
          </mxGeometry>
        </mxCell>
        <mxCell id="jZVaUwOg5UY3L9NAnvdq-123" value="" style="edgeStyle=orthogonalEdgeStyle;rounded=0;orthogonalLoop=1;jettySize=auto;html=1;endArrow=open;endFill=0;strokeColor=#545B64;strokeWidth=2;fontSize=14;" parent="1" target="jZVaUwOg5UY3L9NAnvdq-93" edge="1">
          <mxGeometry relative="1" as="geometry">
            <Array as="points">
              <mxPoint x="1170" y="272" />
              <mxPoint x="1170" y="295" />
            </Array>
            <mxPoint x="1117.9991128500255" y="271.47368421052647" as="sourcePoint" />
          </mxGeometry>
        </mxCell>
        <mxCell id="jZVaUwOg5UY3L9NAnvdq-132" value="" style="edgeStyle=elbowEdgeStyle;rounded=0;orthogonalLoop=1;jettySize=auto;html=1;endArrow=open;endFill=0;strokeColor=#545B64;strokeWidth=2;fontSize=14;" parent="1" edge="1">
          <mxGeometry relative="1" as="geometry">
            <mxPoint x="550" y="599.5" as="sourcePoint" />
            <mxPoint x="625" y="599.5" as="targetPoint" />
          </mxGeometry>
        </mxCell>
        <mxCell id="jZVaUwOg5UY3L9NAnvdq-121" value="" style="edgeStyle=elbowEdgeStyle;rounded=0;orthogonalLoop=1;jettySize=auto;html=1;endArrow=open;endFill=0;strokeColor=#545B64;strokeWidth=2;fontSize=14;" parent="1" target="jZVaUwOg5UY3L9NAnvdq-92" edge="1">
          <mxGeometry relative="1" as="geometry">
            <mxPoint x="1288.5" y="186.5" as="sourcePoint" />
          </mxGeometry>
        </mxCell>
        <mxCell id="jZVaUwOg5UY3L9NAnvdq-147" value="" style="edgeStyle=elbowEdgeStyle;rounded=0;orthogonalLoop=1;jettySize=auto;html=1;endArrow=open;endFill=0;strokeColor=#545B64;strokeWidth=2;fontSize=14;" parent="1" edge="1">
          <mxGeometry relative="1" as="geometry">
            <mxPoint x="1249.157894736842" y="634" as="sourcePoint" />
            <mxPoint x="1249.157894736842" y="717.5" as="targetPoint" />
          </mxGeometry>
        </mxCell>
        <mxCell id="jZVaUwOg5UY3L9NAnvdq-155" value="" style="edgeStyle=elbowEdgeStyle;rounded=0;orthogonalLoop=1;jettySize=auto;html=1;endArrow=open;endFill=0;strokeColor=#545B64;strokeWidth=2;fontSize=14;" parent="1" edge="1">
          <mxGeometry relative="1" as="geometry">
            <mxPoint x="1249.157894736842" y="494.49999999999955" as="targetPoint" />
            <mxPoint x="1249.157894736842" y="556" as="sourcePoint" />
          </mxGeometry>
        </mxCell>
        <mxCell id="jZVaUwOg5UY3L9NAnvdq-146" value="" style="edgeStyle=elbowEdgeStyle;rounded=0;orthogonalLoop=1;jettySize=auto;html=1;endArrow=open;endFill=0;strokeColor=#545B64;strokeWidth=2;fontSize=14;" parent="1" edge="1">
          <mxGeometry relative="1" as="geometry">
            <mxPoint x="1210.0008871499736" y="756.5" as="sourcePoint" />
            <mxPoint x="1001" y="756.5" as="targetPoint" />
          </mxGeometry>
        </mxCell>
        <mxCell id="jZVaUwOg5UY3L9NAnvdq-151" value="" style="edgeStyle=elbowEdgeStyle;rounded=0;orthogonalLoop=1;jettySize=auto;html=1;endArrow=open;endFill=0;strokeColor=#545B64;strokeWidth=2;fontSize=14;" parent="1" edge="1">
          <mxGeometry relative="1" as="geometry">
            <mxPoint x="1432.3747941992378" y="595" as="sourcePoint" />
            <mxPoint x="1287.9999999999995" y="595" as="targetPoint" />
          </mxGeometry>
        </mxCell>
        <mxCell id="jZVaUwOg5UY3L9NAnvdq-149" value="" style="rounded=0;orthogonalLoop=1;jettySize=auto;html=1;endArrow=open;endFill=0;strokeColor=#545B64;strokeWidth=2;fontSize=14;" parent="1" source="jZVaUwOg5UY3L9NAnvdq-100" edge="1">
          <mxGeometry relative="1" as="geometry">
            <mxPoint x="1287.9999999999995" y="627.1176470588234" as="targetPoint" />
          </mxGeometry>
        </mxCell>
        <mxCell id="jZVaUwOg5UY3L9NAnvdq-124" value="" style="edgeStyle=elbowEdgeStyle;rounded=0;orthogonalLoop=1;jettySize=auto;html=1;endArrow=open;endFill=0;strokeColor=#545B64;strokeWidth=2;fontSize=14;" parent="1" target="jZVaUwOg5UY3L9NAnvdq-94" edge="1">
          <mxGeometry relative="1" as="geometry">
            <mxPoint x="1117.9991128500255" y="271.5" as="sourcePoint" />
            <mxPoint x="1490.2117381489843" y="345" as="targetPoint" />
            <Array as="points">
              <mxPoint x="1170" y="332" />
            </Array>
          </mxGeometry>
        </mxCell>
        <mxCell id="jZVaUwOg5UY3L9NAnvdq-130" style="edgeStyle=elbowEdgeStyle;rounded=0;orthogonalLoop=1;jettySize=auto;html=1;endArrow=open;endFill=0;strokeColor=#545B64;strokeWidth=2;fontSize=14;" parent="1" edge="1">
          <mxGeometry relative="1" as="geometry">
            <mxPoint x="240" y="452" as="sourcePoint" />
            <mxPoint x="472" y="599.5" as="targetPoint" />
            <Array as="points">
              <mxPoint x="410" y="512" />
            </Array>
          </mxGeometry>
        </mxCell>
        <mxCell id="-QjtrjUzRDEMRZ5MF8oH-46" value="" style="rounded=0;whiteSpace=wrap;html=1;fillColor=#EAEDED;fontSize=22;fontColor=#FFFFFF;strokeColor=none;labelBackgroundColor=none;" parent="1" vertex="1">
          <mxGeometry x="1544.5" y="37" width="539" height="1080" as="geometry" />
        </mxCell>
        <mxCell id="-QjtrjUzRDEMRZ5MF8oH-36" value="1" style="rounded=1;whiteSpace=wrap;html=1;fillColor=#007CBD;strokeColor=none;fontColor=#FFFFFF;fontStyle=1;fontSize=22;labelBackgroundColor=none;" parent="1" vertex="1">
          <mxGeometry x="1563" y="49.5" width="40" height="38" as="geometry" />
        </mxCell>
        <mxCell id="-QjtrjUzRDEMRZ5MF8oH-37" value="2" style="rounded=1;whiteSpace=wrap;html=1;fillColor=#007CBD;strokeColor=none;fontColor=#FFFFFF;fontStyle=1;fontSize=22;labelBackgroundColor=none;" parent="1" vertex="1">
          <mxGeometry x="1561.5" y="171.5" width="40" height="38" as="geometry" />
        </mxCell>
        <mxCell id="-QjtrjUzRDEMRZ5MF8oH-38" value="3" style="rounded=1;whiteSpace=wrap;html=1;fillColor=#007CBD;strokeColor=none;fontColor=#FFFFFF;fontStyle=1;fontSize=22;labelBackgroundColor=none;" parent="1" vertex="1">
          <mxGeometry x="1561.5" y="291.5" width="40" height="38" as="geometry" />
        </mxCell>
        <mxCell id="-QjtrjUzRDEMRZ5MF8oH-39" value="4" style="rounded=1;whiteSpace=wrap;html=1;fillColor=#007CBD;strokeColor=none;fontColor=#FFFFFF;fontStyle=1;fontSize=22;labelBackgroundColor=none;" parent="1" vertex="1">
          <mxGeometry x="1561.5" y="405.5" width="40" height="38" as="geometry" />
        </mxCell>
        <mxCell id="-QjtrjUzRDEMRZ5MF8oH-40" value="5" style="rounded=1;whiteSpace=wrap;html=1;fillColor=#007CBD;strokeColor=none;fontColor=#FFFFFF;fontStyle=1;fontSize=22;labelBackgroundColor=none;" parent="1" vertex="1">
          <mxGeometry x="1563" y="522.5" width="40" height="38" as="geometry" />
        </mxCell>
        <mxCell id="-QjtrjUzRDEMRZ5MF8oH-41" value="6" style="rounded=1;whiteSpace=wrap;html=1;fillColor=#007CBD;strokeColor=none;fontColor=#FFFFFF;fontStyle=1;fontSize=22;labelBackgroundColor=none;" parent="1" vertex="1">
          <mxGeometry x="1564" y="637.5" width="40" height="38" as="geometry" />
        </mxCell>
        <mxCell id="-QjtrjUzRDEMRZ5MF8oH-42" value="7" style="rounded=1;whiteSpace=wrap;html=1;fillColor=#007CBD;strokeColor=none;fontColor=#FFFFFF;fontStyle=1;fontSize=22;labelBackgroundColor=none;" parent="1" vertex="1">
          <mxGeometry x="1563.5" y="753.5" width="40" height="38" as="geometry" />
        </mxCell>
        <mxCell id="-QjtrjUzRDEMRZ5MF8oH-43" value="8" style="rounded=1;whiteSpace=wrap;html=1;fillColor=#007CBD;strokeColor=none;fontColor=#FFFFFF;fontStyle=1;fontSize=22;labelBackgroundColor=none;" parent="1" vertex="1">
          <mxGeometry x="1564" y="871.5" width="40" height="38" as="geometry" />
        </mxCell>
        <mxCell id="-QjtrjUzRDEMRZ5MF8oH-44" value="9" style="rounded=1;whiteSpace=wrap;html=1;fillColor=#007CBD;strokeColor=none;fontColor=#FFFFFF;fontStyle=1;fontSize=22;labelBackgroundColor=none;" parent="1" vertex="1">
          <mxGeometry x="1562" y="991.5" width="40" height="38" as="geometry" />
        </mxCell>
        <mxCell id="-QjtrjUzRDEMRZ5MF8oH-47" value="System Design - 10,000 users - Initial Decision" style="text;html=1;resizable=0;points=[];autosize=1;align=left;verticalAlign=top;spacingTop=-4;fontSize=30;fontStyle=1;labelBackgroundColor=none;" parent="1" vertex="1">
          <mxGeometry x="36.5" y="26.5" width="650" height="40" as="geometry" />
        </mxCell>
        <mxCell id="-QjtrjUzRDEMRZ5MF8oH-48" value="Initially, the survey was decided to have 10K users and later sample size changed to 2M+ users." style="text;html=1;resizable=0;points=[];autosize=1;align=left;verticalAlign=top;spacingTop=-4;fontSize=16;labelBackgroundColor=none;" parent="1" vertex="1">
          <mxGeometry x="36.5" y="76.5" width="700" height="30" as="geometry" />
        </mxCell>
        <mxCell id="SCVMTBWpLvtzJIhz15lM-1" value="" style="line;strokeWidth=2;html=1;fontSize=14;labelBackgroundColor=none;" parent="1" vertex="1">
          <mxGeometry x="32.5" y="101.5" width="1060" height="10" as="geometry" />
        </mxCell>
        <mxCell id="SCVMTBWpLvtzJIhz15lM-6" value="&lt;span&gt;Lorem ipsum dolor sit amet, consectetur adipiscing elit, sed do eiusmod tempor incididunt ut labore et dolore magna aliqua. Ut enim ad minim veniam, quis nostrud exercitation ullamco laboris nisi ut aliquip ex ea commodo consequat. Duis aute irure dolor in reprehenderit in voluptate velit esse cillum dolore eu fugiat nulla pariatur. Excepteur sint occaecat cupidatat non proident, sunt in culpa qui officia deserunt mollit anim id est laborum.&lt;/span&gt;&lt;br&gt;" style="text;html=1;align=left;verticalAlign=top;spacingTop=-4;fontSize=14;labelBackgroundColor=none;whiteSpace=wrap;" parent="1" vertex="1">
          <mxGeometry x="1614.5" y="49" width="449" height="118" as="geometry" />
        </mxCell>
        <mxCell id="SCVMTBWpLvtzJIhz15lM-7" value="&lt;span&gt;Lorem ipsum dolor sit amet, consectetur adipiscing elit, sed do eiusmod tempor incididunt ut labore et dolore magna aliqua. Ut enim ad minim veniam, quis nostrud exercitation ullamco laboris nisi ut aliquip ex ea commodo consequat. Duis aute irure dolor in reprehenderit in voluptate velit esse cillum dolore eu fugiat nulla pariatur. Excepteur sint occaecat cupidatat non proident, sunt in culpa qui officia deserunt mollit anim id est laborum.&lt;/span&gt;&lt;br&gt;" style="text;html=1;align=left;verticalAlign=top;spacingTop=-4;fontSize=14;labelBackgroundColor=none;whiteSpace=wrap;" parent="1" vertex="1">
          <mxGeometry x="1613.5" y="172" width="450" height="115" as="geometry" />
        </mxCell>
        <mxCell id="SCVMTBWpLvtzJIhz15lM-9" value="&lt;span&gt;Lorem ipsum dolor sit amet, consectetur adipiscing elit, sed do eiusmod tempor incididunt ut labore et dolore magna aliqua. Ut enim ad minim veniam, quis nostrud exercitation ullamco laboris nisi ut aliquip ex ea commodo consequat. Duis aute irure dolor in reprehenderit in voluptate velit esse cillum dolore eu fugiat nulla pariatur. Excepteur sint occaecat cupidatat non proident, sunt in culpa qui officia deserunt mollit anim id est laborum.&lt;/span&gt;&lt;br&gt;" style="text;html=1;align=left;verticalAlign=top;spacingTop=-4;fontSize=14;labelBackgroundColor=none;whiteSpace=wrap;" parent="1" vertex="1">
          <mxGeometry x="1613.5" y="290" width="450" height="117" as="geometry" />
        </mxCell>
        <mxCell id="SCVMTBWpLvtzJIhz15lM-10" value="&lt;span&gt;Lorem ipsum dolor sit amet, consectetur adipiscing elit, sed do eiusmod tempor incididunt ut labore et dolore magna aliqua. Ut enim ad minim veniam, quis nostrud exercitation ullamco laboris nisi ut aliquip ex ea commodo consequat. Duis aute irure dolor in reprehenderit in voluptate velit esse cillum dolore eu fugiat nulla pariatur. Excepteur sint occaecat cupidatat non proident, sunt in culpa qui officia deserunt mollit anim id est laborum.&lt;/span&gt;&lt;br&gt;" style="text;html=1;align=left;verticalAlign=top;spacingTop=-4;fontSize=14;labelBackgroundColor=none;whiteSpace=wrap;" parent="1" vertex="1">
          <mxGeometry x="1613.5" y="406" width="450" height="121" as="geometry" />
        </mxCell>
        <mxCell id="SCVMTBWpLvtzJIhz15lM-11" value="&lt;span&gt;Lorem ipsum dolor sit amet, consectetur adipiscing elit, sed do eiusmod tempor incididunt ut labore et dolore magna aliqua. Ut enim ad minim veniam, quis nostrud exercitation ullamco laboris nisi ut aliquip ex ea commodo consequat. Duis aute irure dolor in reprehenderit in voluptate velit esse cillum dolore eu fugiat nulla pariatur. Excepteur sint occaecat cupidatat non proident, sunt in culpa qui officia deserunt mollit anim id est laborum.&lt;/span&gt;&lt;br&gt;" style="text;html=1;align=left;verticalAlign=top;spacingTop=-4;fontSize=14;labelBackgroundColor=none;whiteSpace=wrap;" parent="1" vertex="1">
          <mxGeometry x="1614.5" y="523" width="449" height="114" as="geometry" />
        </mxCell>
        <mxCell id="SCVMTBWpLvtzJIhz15lM-12" value="&lt;span&gt;Lorem ipsum dolor sit amet, consectetur adipiscing elit, sed do eiusmod tempor incididunt ut labore et dolore magna aliqua. Ut enim ad minim veniam, quis nostrud exercitation ullamco laboris nisi ut aliquip ex ea commodo consequat. Duis aute irure dolor in reprehenderit in voluptate velit esse cillum dolore eu fugiat nulla pariatur. Excepteur sint occaecat cupidatat non proident, sunt in culpa qui officia deserunt mollit anim id est laborum.&lt;/span&gt;&lt;br&gt;" style="text;html=1;align=left;verticalAlign=top;spacingTop=-4;fontSize=14;labelBackgroundColor=none;whiteSpace=wrap;" parent="1" vertex="1">
          <mxGeometry x="1614.5" y="639" width="450" height="118" as="geometry" />
        </mxCell>
        <mxCell id="SCVMTBWpLvtzJIhz15lM-13" value="&lt;span&gt;Lorem ipsum dolor sit amet, consectetur adipiscing elit, sed do eiusmod tempor incididunt ut labore et dolore magna aliqua. Ut enim ad minim veniam, quis nostrud exercitation ullamco laboris nisi ut aliquip ex ea commodo consequat. Duis aute irure dolor in reprehenderit in voluptate velit esse cillum dolore eu fugiat nulla pariatur. Excepteur sint occaecat cupidatat non proident, sunt in culpa qui officia deserunt mollit anim id est laborum.&lt;/span&gt;&lt;br&gt;" style="text;html=1;align=left;verticalAlign=top;spacingTop=-4;fontSize=14;labelBackgroundColor=none;whiteSpace=wrap;" parent="1" vertex="1">
          <mxGeometry x="1614.5" y="754" width="449" height="113" as="geometry" />
        </mxCell>
        <mxCell id="SCVMTBWpLvtzJIhz15lM-14" value="&lt;span&gt;Lorem ipsum dolor sit amet, consectetur adipiscing elit, sed do eiusmod tempor incididunt ut labore et dolore magna aliqua. Ut enim ad minim veniam, quis nostrud exercitation ullamco laboris nisi ut aliquip ex ea commodo consequat. Duis aute irure dolor in reprehenderit in voluptate velit esse cillum dolore eu fugiat nulla pariatur. Excepteur sint occaecat cupidatat non proident, sunt in culpa qui officia deserunt mollit anim id est laborum.&lt;/span&gt;&lt;br&gt;" style="text;html=1;align=left;verticalAlign=top;spacingTop=-4;fontSize=14;labelBackgroundColor=none;whiteSpace=wrap;" parent="1" vertex="1">
          <mxGeometry x="1614.5" y="873" width="449" height="124" as="geometry" />
        </mxCell>
        <mxCell id="SCVMTBWpLvtzJIhz15lM-15" value="&lt;span&gt;Lorem ipsum dolor sit amet, consectetur adipiscing elit, sed do eiusmod tempor incididunt ut labore et dolore magna aliqua. Ut enim ad minim veniam, quis nostrud exercitation ullamco laboris nisi ut aliquip ex ea commodo consequat. Duis aute irure dolor in reprehenderit in voluptate velit esse cillum dolore eu fugiat nulla pariatur. Excepteur sint occaecat cupidatat non proident, sunt in culpa qui officia deserunt mollit anim id est laborum.&lt;/span&gt;&lt;br&gt;" style="text;html=1;align=left;verticalAlign=top;spacingTop=-4;fontSize=14;labelBackgroundColor=none;whiteSpace=wrap;" parent="1" vertex="1">
          <mxGeometry x="1614.5" y="992" width="449" height="115" as="geometry" />
        </mxCell>
        <mxCell id="-QjtrjUzRDEMRZ5MF8oH-28" value="4" style="rounded=1;whiteSpace=wrap;html=1;fillColor=#007CBD;strokeColor=none;fontColor=#FFFFFF;fontStyle=1;fontSize=22;labelBackgroundColor=none;" parent="1" vertex="1">
          <mxGeometry x="559" y="352" width="40" height="38" as="geometry" />
        </mxCell>
        <mxCell id="jZVaUwOg5UY3L9NAnvdq-92" value="User" style="outlineConnect=0;fontColor=#232F3E;gradientColor=none;fillColor=#232F3E;strokeColor=none;dashed=0;verticalLabelPosition=bottom;verticalAlign=top;align=center;html=1;fontSize=12;fontStyle=0;aspect=fixed;pointerEvents=1;shape=mxgraph.aws4.user;labelBackgroundColor=none;" parent="1" vertex="1">
          <mxGeometry x="1431.5000000000002" y="147.5" width="78" height="78" as="geometry" />
        </mxCell>
        <mxCell id="jZVaUwOg5UY3L9NAnvdq-93" value="API" style="outlineConnect=0;fontColor=#232F3E;gradientColor=none;fillColor=#232F3E;strokeColor=none;dashed=0;verticalLabelPosition=bottom;verticalAlign=top;align=center;html=1;fontSize=12;fontStyle=0;aspect=fixed;pointerEvents=1;shape=mxgraph.aws4.external_sdk;labelBackgroundColor=none;" parent="1" vertex="1">
          <mxGeometry x="1436.5000000000002" y="256" width="68" height="78" as="geometry" />
        </mxCell>
        <mxCell id="jZVaUwOg5UY3L9NAnvdq-94" value="API&lt;br&gt;" style="outlineConnect=0;fontColor=#232F3E;gradientColor=none;fillColor=#232F3E;strokeColor=none;dashed=0;verticalLabelPosition=bottom;verticalAlign=top;align=center;html=1;fontSize=12;fontStyle=0;aspect=fixed;pointerEvents=1;shape=mxgraph.aws4.external_sdk;labelBackgroundColor=none;" parent="1" vertex="1">
          <mxGeometry x="1436.5000000000002" y="359.5" width="68" height="78" as="geometry" />
        </mxCell>
        <mxCell id="jZVaUwOg5UY3L9NAnvdq-100" value="Research&lt;br&gt;" style="outlineConnect=0;fontColor=#232F3E;gradientColor=none;fillColor=#116D5B;strokeColor=none;dashed=0;verticalLabelPosition=bottom;verticalAlign=top;align=center;html=1;fontSize=12;fontStyle=0;aspect=fixed;pointerEvents=1;shape=mxgraph.aws4.sagemaker_notebook;labelBackgroundColor=none;" parent="1" vertex="1">
          <mxGeometry x="1436" y="738" width="68" height="78" as="geometry" />
        </mxCell>
        <mxCell id="jZVaUwOg5UY3L9NAnvdq-102" value="2" style="rounded=1;whiteSpace=wrap;html=1;fillColor=#007CBD;strokeColor=none;fontColor=#FFFFFF;fontStyle=1;fontSize=22;labelBackgroundColor=none;" parent="1" vertex="1">
          <mxGeometry x="319" y="507.5" width="40" height="38" as="geometry" />
        </mxCell>
        <mxCell id="jZVaUwOg5UY3L9NAnvdq-103" value="3" style="rounded=1;whiteSpace=wrap;html=1;fillColor=#007CBD;strokeColor=none;fontColor=#FFFFFF;fontStyle=1;fontSize=22;labelBackgroundColor=none;" parent="1" vertex="1">
          <mxGeometry x="491" y="674.5" width="40" height="38" as="geometry" />
        </mxCell>
        <mxCell id="jZVaUwOg5UY3L9NAnvdq-104" value="5" style="rounded=1;whiteSpace=wrap;html=1;fillColor=#007CBD;strokeColor=none;fontColor=#FFFFFF;fontStyle=1;fontSize=22;labelBackgroundColor=none;" parent="1" vertex="1">
          <mxGeometry x="880" y="218" width="40" height="38" as="geometry" />
        </mxCell>
        <mxCell id="jZVaUwOg5UY3L9NAnvdq-105" value="6" style="rounded=1;whiteSpace=wrap;html=1;fillColor=#007CBD;strokeColor=none;fontColor=#FFFFFF;fontStyle=1;fontSize=22;labelBackgroundColor=none;" parent="1" vertex="1">
          <mxGeometry x="880" y="363" width="40" height="38" as="geometry" />
        </mxCell>
        <mxCell id="jZVaUwOg5UY3L9NAnvdq-106" value="7" style="rounded=1;whiteSpace=wrap;html=1;fillColor=#007CBD;strokeColor=none;fontColor=#FFFFFF;fontStyle=1;fontSize=22;labelBackgroundColor=none;" parent="1" vertex="1">
          <mxGeometry x="880" y="539" width="40" height="38" as="geometry" />
        </mxCell>
        <mxCell id="jZVaUwOg5UY3L9NAnvdq-107" value="8" style="rounded=1;whiteSpace=wrap;html=1;fillColor=#007CBD;strokeColor=none;fontColor=#FFFFFF;fontStyle=1;fontSize=22;labelBackgroundColor=none;" parent="1" vertex="1">
          <mxGeometry x="880" y="695" width="40" height="38" as="geometry" />
        </mxCell>
        <mxCell id="jZVaUwOg5UY3L9NAnvdq-108" value="9" style="rounded=1;whiteSpace=wrap;html=1;fillColor=#007CBD;strokeColor=none;fontColor=#FFFFFF;fontStyle=1;fontSize=22;labelBackgroundColor=none;" parent="1" vertex="1">
          <mxGeometry x="1130" y="525" width="40" height="38" as="geometry" />
        </mxCell>
        <mxCell id="jZVaUwOg5UY3L9NAnvdq-179" value="" style="group" parent="1" vertex="1" connectable="0">
          <mxGeometry x="1350" y="384.5" width="21" height="26" as="geometry" />
        </mxCell>
        <mxCell id="jZVaUwOg5UY3L9NAnvdq-180" value="" style="rounded=0;whiteSpace=wrap;html=1;labelBackgroundColor=#ffffff;fontSize=14;align=center;strokeColor=none;" parent="jZVaUwOg5UY3L9NAnvdq-179" vertex="1">
          <mxGeometry width="21" height="26" as="geometry" />
        </mxCell>
        <mxCell id="jZVaUwOg5UY3L9NAnvdq-181" value="" style="outlineConnect=0;fontColor=#232F3E;gradientColor=none;fillColor=#B3B3B3;strokeColor=none;dashed=0;verticalLabelPosition=bottom;verticalAlign=top;align=center;html=1;fontSize=12;fontStyle=0;aspect=fixed;pointerEvents=1;shape=mxgraph.aws4.encrypted_data;labelBackgroundColor=#ffffff;" parent="jZVaUwOg5UY3L9NAnvdq-179" vertex="1">
          <mxGeometry width="21" height="26" as="geometry" />
        </mxCell>
        <mxCell id="jZVaUwOg5UY3L9NAnvdq-182" value="" style="group" parent="1" vertex="1" connectable="0">
          <mxGeometry x="1350" y="282" width="21" height="26" as="geometry" />
        </mxCell>
        <mxCell id="jZVaUwOg5UY3L9NAnvdq-183" value="" style="rounded=0;whiteSpace=wrap;html=1;labelBackgroundColor=#ffffff;fontSize=14;align=center;strokeColor=none;" parent="jZVaUwOg5UY3L9NAnvdq-182" vertex="1">
          <mxGeometry width="21" height="26" as="geometry" />
        </mxCell>
        <mxCell id="jZVaUwOg5UY3L9NAnvdq-184" value="" style="outlineConnect=0;fontColor=#232F3E;gradientColor=none;fillColor=#B3B3B3;strokeColor=none;dashed=0;verticalLabelPosition=bottom;verticalAlign=top;align=center;html=1;fontSize=12;fontStyle=0;aspect=fixed;pointerEvents=1;shape=mxgraph.aws4.encrypted_data;labelBackgroundColor=#ffffff;" parent="jZVaUwOg5UY3L9NAnvdq-182" vertex="1">
          <mxGeometry width="21" height="26" as="geometry" />
        </mxCell>
        <mxCell id="jZVaUwOg5UY3L9NAnvdq-185" value="" style="group" parent="1" vertex="1" connectable="0">
          <mxGeometry x="1350" y="581.5" width="21" height="26" as="geometry" />
        </mxCell>
        <mxCell id="jZVaUwOg5UY3L9NAnvdq-186" value="" style="rounded=0;whiteSpace=wrap;html=1;labelBackgroundColor=#ffffff;fontSize=14;align=center;strokeColor=none;" parent="jZVaUwOg5UY3L9NAnvdq-185" vertex="1">
          <mxGeometry width="21" height="26" as="geometry" />
        </mxCell>
        <mxCell id="jZVaUwOg5UY3L9NAnvdq-187" value="" style="outlineConnect=0;fontColor=#232F3E;gradientColor=none;fillColor=#B3B3B3;strokeColor=none;dashed=0;verticalLabelPosition=bottom;verticalAlign=top;align=center;html=1;fontSize=12;fontStyle=0;aspect=fixed;pointerEvents=1;shape=mxgraph.aws4.encrypted_data;labelBackgroundColor=#ffffff;" parent="jZVaUwOg5UY3L9NAnvdq-185" vertex="1">
          <mxGeometry width="21" height="26" as="geometry" />
        </mxCell>
        <mxCell id="jZVaUwOg5UY3L9NAnvdq-188" value="" style="group" parent="1" vertex="1" connectable="0">
          <mxGeometry x="1350" y="672" width="21" height="26" as="geometry" />
        </mxCell>
        <mxCell id="jZVaUwOg5UY3L9NAnvdq-189" value="" style="rounded=0;whiteSpace=wrap;html=1;labelBackgroundColor=#ffffff;fontSize=14;align=center;strokeColor=none;" parent="jZVaUwOg5UY3L9NAnvdq-188" vertex="1">
          <mxGeometry width="21" height="26" as="geometry" />
        </mxCell>
        <mxCell id="jZVaUwOg5UY3L9NAnvdq-190" value="" style="outlineConnect=0;fontColor=#232F3E;gradientColor=none;fillColor=#B3B3B3;strokeColor=none;dashed=0;verticalLabelPosition=bottom;verticalAlign=top;align=center;html=1;fontSize=12;fontStyle=0;aspect=fixed;pointerEvents=1;shape=mxgraph.aws4.encrypted_data;labelBackgroundColor=#ffffff;" parent="jZVaUwOg5UY3L9NAnvdq-188" vertex="1">
          <mxGeometry width="21" height="26" as="geometry" />
        </mxCell>
        <mxCell id="NOl0aqLu7fEq007huH1b-6" value="" style="image;aspect=fixed;perimeter=ellipsePerimeter;html=1;align=center;shadow=0;dashed=0;spacingTop=3;image=img/lib/active_directory/users.svg;" vertex="1" parent="1">
          <mxGeometry x="80" y="130" width="89.43" height="135.5" as="geometry" />
        </mxCell>
        <mxCell id="NOl0aqLu7fEq007huH1b-7" value="" style="shape=image;html=1;verticalAlign=top;verticalLabelPosition=bottom;labelBackgroundColor=#ffffff;imageAspect=0;aspect=fixed;image=https://cdn1.iconfinder.com/data/icons/KDE_Crystal_Diamond_2.5_Classical_Mod/128x128/mimetypes/html.png" vertex="1" parent="1">
          <mxGeometry x="60.72000000000003" y="334.5" width="128" height="128" as="geometry" />
        </mxCell>
        <mxCell id="NOl0aqLu7fEq007huH1b-8" value="" style="edgeStyle=elbowEdgeStyle;rounded=0;orthogonalLoop=1;jettySize=auto;html=1;endArrow=open;endFill=0;strokeColor=#545B64;strokeWidth=2;fontSize=14;" edge="1" parent="1">
          <mxGeometry relative="1" as="geometry">
            <mxPoint x="124.18789473684205" y="250.5" as="sourcePoint" />
            <mxPoint x="124.18789473684205" y="334" as="targetPoint" />
          </mxGeometry>
        </mxCell>
      </root>
    </mxGraphModel>
  </diagram>
</mxfile>
